<?xml version="1.0" encoding="utf-8"?>
<!-- Generator: Adobe Illustrator 16.0.0, SVG Export Plug-In . SVG Version: 6.00 Build 0)  -->
<!DOCTYPE svg PUBLIC "-//W3C//DTD SVG 1.1//EN" "http://www.w3.org/Graphics/SVG/1.1/DTD/svg11.dtd">
<svg version="1.1" id="Layer_1" xmlns="http://www.w3.org/2000/svg" xmlns:xlink="http://www.w3.org/1999/xlink" x="0px" y="0px"
	 width="56.69px" height="56.69px" viewBox="0 0 56.69 56.69" enable-background="new 0 0 56.69 56.69" xml:space="preserve">
<circle fill="#6D6D6D" stroke="#6D6D6D" stroke-miterlimit="10" cx="12.631" cy="12.196" r="1.662"/>
<line fill="none" stroke="#000000" stroke-miterlimit="10" x1="13.203" y1="13.555" x2="16.924" y2="17.276"/>
<line fill="none" stroke="#000000" stroke-miterlimit="10" x1="15.577" y1="11.181" x2="19.298" y2="14.902"/>
<path fill="none" stroke="#000000" stroke-miterlimit="10" d="M13.203,13.555c-1.064-1.064-1.323-2.528-0.578-3.272"/>
<path fill="none" stroke="#000000" stroke-miterlimit="10" d="M15.961,11.566c-1.277-1.277-2.77-1.851-3.337-1.283"/>
<path fill="none" stroke="#000000" stroke-miterlimit="10" d="M10.782,20.414"/>
<path fill="none" stroke="#000000" stroke-miterlimit="10" d="M12.199,23.681"/>
<path fill="none" stroke="#000000" stroke-miterlimit="10" d="M19.559,14.516"/>
<path fill="none" stroke="#000000" stroke-miterlimit="10" d="M16.555,17.276"/>
<g>
	<g>
		<path fill="none" stroke="#000000" stroke-miterlimit="10" d="M7.262,24.322c0.14-2.045,0.576-4.008,1.267-5.847"/>
		<path fill="none" stroke="#000000" stroke-miterlimit="10" d="M20.614,6.39c1.838-0.69,3.802-1.127,5.847-1.267"/>
		<g>
			<polygon points="8.296,24.083 7.213,25.757 6.304,23.982 			"/>
		</g>
		<g>
			<polygon points="26.221,6.157 27.897,5.074 26.122,4.165 			"/>
		</g>
	</g>
</g>
</svg>
