<?xml version="1.0" encoding="utf-8"?>
<!-- Generator: Adobe Illustrator 16.0.0, SVG Export Plug-In . SVG Version: 6.00 Build 0)  -->
<!DOCTYPE svg PUBLIC "-//W3C//DTD SVG 1.1//EN" "http://www.w3.org/Graphics/SVG/1.1/DTD/svg11.dtd">
<svg version="1.1" id="Layer_1" xmlns="http://www.w3.org/2000/svg" xmlns:xlink="http://www.w3.org/1999/xlink" x="0px" y="0px"
	 width="56.689px" height="56.689px" viewBox="0 0 56.689 56.689" enable-background="new 0 0 56.689 56.689" xml:space="preserve">
<circle fill="#FFFFFF" stroke="#FFFFFF" stroke-miterlimit="10" cx="11.631" cy="12.196" r="1.662"/>
<line fill="none" stroke="#AAAAA9" stroke-miterlimit="10" x1="12.203" y1="13.555" x2="15.924" y2="17.276"/>
<line fill="none" stroke="#AAAAA9" stroke-miterlimit="10" x1="14.577" y1="11.181" x2="18.298" y2="14.902"/>
<path fill="none" stroke="#AAAAA9" stroke-miterlimit="10" d="M12.203,13.555c-1.064-1.063-1.323-2.528-0.578-3.271"/>
<path fill="none" stroke="#AAAAA9" stroke-miterlimit="10" d="M14.961,11.566c-1.277-1.276-2.771-1.851-3.337-1.282"/>
<path fill="none" stroke="#000000" stroke-miterlimit="10" d="M9.782,20.414"/>
<path fill="none" stroke="#000000" stroke-miterlimit="10" d="M11.199,23.681"/>
<path fill="none" stroke="#000000" stroke-miterlimit="10" d="M18.559,14.516"/>
<path fill="none" stroke="#000000" stroke-miterlimit="10" d="M15.555,17.276"/>
<g>
	<g>
		<path fill="none" stroke="#AAAAA9" stroke-miterlimit="10" d="M6.262,24.322c0.14-2.045,0.576-4.008,1.267-5.847"/>
		<path fill="none" stroke="#AAAAA9" stroke-miterlimit="10" d="M19.614,6.39c1.839-0.689,3.803-1.127,5.848-1.267"/>
		<g>
			<polygon fill="#AAAAA9" points="7.296,24.083 6.213,25.757 5.304,23.982 			"/>
		</g>
		<g>
			<polygon fill="#AAAAA9" points="25.221,6.157 26.897,5.074 25.122,4.165 			"/>
		</g>
	</g>
</g>
</svg>
